<?xml version="1.0" standalone="no"?>
<!DOCTYPE svg PUBLIC "-//W3C//DTD SVG 20010904//EN"
 "http://www.w3.org/TR/2001/REC-SVG-20010904/DTD/svg10.dtd">
<svg version="1.0" xmlns="http://www.w3.org/2000/svg"
 width="1280.000000pt" height="1058.000000pt" viewBox="0 0 1280.000000 1058.000000"
 preserveAspectRatio="xMidYMid meet">
<metadata>
Created by potrace 1.15, written by Peter Selinger 2001-2017
</metadata>
<g transform="translate(0.000000,1058.000000) scale(0.100000,-0.100000)"
fill="#000000" stroke="none">
<path d="M2416 10564 c-219 -47 -402 -190 -495 -387 -16 -34 -102 -233 -191
-442 -440 -1033 -778 -1825 -1195 -2800 -252 -588 -474 -1115 -494 -1170 l-36
-100 -3 -1295 c-3 -1460 -7 -1381 73 -1545 91 -188 246 -318 452 -377 l78 -23
5795 0 5795 0 78 23 c206 59 361 189 452 377 80 164 76 85 73 1545 l-3 1295
-36 100 c-20 55 -242 582 -494 1170 -417 975 -755 1767 -1195 2800 -89 209
-175 408 -191 442 -85 179 -250 317 -454 379 -58 18 -213 19 -4000 21 -3461 1
-3948 0 -4009 -13z m7756 -922 c29 -18 48 -43 78 -105 34 -68 1071 -2659 1066
-2664 0 0 -1107 2 -2458 6 -1352 5 -3564 5 -4915 0 -1352 -4 -2459 -6 -2459
-6 -5 5 1032 2596 1066 2663 39 81 66 108 119 124 14 5 1700 8 3746 7 l3720
-2 37 -23z m-1972 -4532 l0 -450 -1800 0 -1800 0 0 450 0 450 1800 0 1800 0 0
-450z"/>
<path d="M769 2166 c-2 -2 -2 -424 1 -938 l5 -933 28 -57 c43 -88 107 -152
195 -195 l76 -38 579 -3 c500 -2 587 -1 640 13 121 31 212 106 268 221 l34 69
3 933 2 932 -913 0 c-503 0 -916 -2 -918 -4z"/>
<path d="M10202 1238 l3 -933 34 -69 c56 -115 147 -190 268 -221 53 -14 140
-15 640 -13 l579 3 76 38 c88 43 152 107 195 195 l28 57 5 933 c3 514 3 936 1
938 -2 2 -415 4 -918 4 l-913 0 2 -932z"/>
</g>
</svg>
